<svg xmlns="http://www.w3.org/2000/svg" width="52" height="52"><g fill="none" fill-rule="evenodd" stroke="#0033A0" transform="translate(1 1)"><circle cx="25" cy="25" r="25"/><path stroke-linecap="round" stroke-linejoin="round" d="M41 39L11 39 11 13"/><path stroke-linecap="round" stroke-linejoin="round" d="M27.132 30.58c.238 1.3.598 4.52 4.086 4.52m-16.957 0a3.904 3.904 0 0 0 3.844-3.198l1.56-8.542c.416-2.287 3.103-3.32 4.952-1.933"/><path stroke-linecap="round" stroke-linejoin="round" d="M20.783 35.1a3.904 3.904 0 0 0 3.844-3.198l1.56-8.542c.616-3.396 5.53-3.397 6.148 0l1.56 8.542A3.904 3.904 0 0 0 37.74 35.1"/></g></svg>