<svg height="76" viewBox="0 0 76 76" width="76" xmlns="http://www.w3.org/2000/svg"><g fill="none" fill-rule="evenodd" transform="translate(.5 -.118)"><circle cx="37.5" cy="38.118" r="37" stroke="#0033a0"/><g stroke-linecap="round" stroke-linejoin="round"><path d="m40 56.82v-18.82h4.617" stroke="#00349c"/><path d="m36 56.82v-22.202h-5" stroke="#00349c"/><path d="m34 56.82v-15.202h-3.95" stroke="#00349c"/><path d="m36 21.174v10.444h6.1" stroke="#00349c"/><path d="m45.2729728 31.6065c0 .8868125-.71064 1.6065-1.586304 1.6065-.876096 0-1.586304-.7196875-1.586304-1.6065s.710208-1.6065 1.586304-1.6065c.875664 0 1.586304.7196875 1.586304 1.6065zm-14.310432 3c0 .88725-.710208 1.6065-1.586304 1.6065-.875664 0-1.585872-.71925-1.585872-1.6065 0-.8868125.710208-1.6065 1.585872-1.6065.876096 0 1.586304.7196875 1.586304 1.6065zm15.913152 3.537125c0 .63175-.505872 1.1440625-1.12968 1.1440625s-1.129248-.5123125-1.129248-1.1440625.50544-1.143625 1.129248-1.143625 1.12968.511875 1.12968 1.143625zm-16.8260976 3.4716875c0 .6313125-.505872 1.143625-1.12968 1.143625s-1.129248-.5123125-1.129248-1.143625c0-.63175.50544-1.1440625 1.129248-1.1440625s1.12968.5123125 1.12968 1.1440625zm10.3747824 19.1272c0 1.516375-1.623024 3.437875-3.625776 3.437875-2.001888 0-3.625344-1.9215-3.625344-3.437875" stroke="#00349c"/><path d="m36.7987744 20.8620688c-8.010576 0-14.5044 6.5765-14.5044 14.6890625 0 8.15325 7.921584 11.412625 7.921584 16.3415v2.6989375c0 1.311625.823392 2.2281875 2.884032 2.2281875h3.685392 3.685392c2.061072 0 2.910816-.9165625 2.910816-2.2281875v-2.6989375c0-4.928875 7.921584-8.18825 7.921584-16.3415 0-8.1125625-6.493392-14.6890625-14.5044-14.6890625m4.563 39.7565437h-9.126c-.934848 0-1.693008-.7678125-1.693008-1.715v-.3688125c0-.9471875.75816-1.715 1.693008-1.715h9.126c.93528 0 1.69344.7678125 1.69344 1.715v.3688125c0 .9471875-.75816 1.715-1.69344 1.715z" stroke="#0034a6"/><path d="m36.799 9v7.755" stroke="#00349c"/><path d="m17.657 16.755 5.743 5.815" stroke="#00349c"/><path d="m10 36.14h7.657" stroke="#00349c"/><path d="m17.657 55.526 5.743-5.816" stroke="#00349c"/><path d="m55.941 55.526-3.057-3.096-2.686-2.72" stroke="#00349c"/><path d="m55.941 16.755-5.743 5.815" stroke="#00349c"/><path d="m63.598 36.14h-7.657" stroke="#00349c"/></g></g></svg>