<svg xmlns="http://www.w3.org/2000/svg" width="52" height="52"><g fill="none" fill-rule="evenodd" stroke="#0033A0" transform="translate(1 1)"><circle cx="25" cy="25" r="25"/><path stroke-linejoin="round" d="M35.867 20.312C35.867 13.75 29.758 10 24.214 10 17.323 10 12 15.482 12 22.472c0 3.97 1.286 7.695 5.143 10.015V40H30v-4.535c2.571.014 3.879-.175 4.78-1.09 1.156-1.172 1.046-6.114 1.046-6.114s1.096.042 1.926.008a.96.96 0 0 0 .739-.4c.166-.24.113-.53.135-.822.148-2.095-2.76-5.69-2.76-6.735z"/><path stroke-linejoin="round" d="M23.714 13.913L28.264 13.913 26.046 19.13 29.471 19.13 22.036 30.479 23.503 23.043 19.998 23.043z"/></g></svg>