<svg xmlns="http://www.w3.org/2000/svg" width="80" height="80"><g fill="none" fill-rule="evenodd" stroke="#FFF"><path stroke-linecap="round" stroke-linejoin="round" d="M49.229 52.661c3.912.706 6.467 1.872 6.467 3.19 0 2.153-6.802 3.896-15.19 3.896s-15.19-1.743-15.19-3.895c0-1.321 2.57-2.488 6.496-3.194m17.506-4.05c9.636 1.256 16.505 4.513 16.505 8.331 0 4.906-11.336 8.884-25.317 8.884-13.982 0-25.316-3.978-25.316-8.884 0-3.818 6.868-7.075 16.508-8.331"/><path stroke-linecap="round" stroke-linejoin="round" stroke-width="2" d="M49.62 32.405c0 4.643-2.137 11.14-6.413 12.7v9.579h-6.414v-9.58c-4.276-1.56-6.413-8.056-6.413-12.699zM40 15.19a6.583 6.583 0 1 1-.002 13.166A6.583 6.583 0 0 1 40 15.19z"/><path d="M40 .5c10.908 0 20.783 4.421 27.93 11.57C75.08 19.216 79.5 29.091 79.5 40c0 10.908-4.421 20.783-11.57 27.93C60.784 75.08 50.909 79.5 40 79.5c-10.908 0-20.783-4.421-27.93-11.57C4.92 60.784.5 50.909.5 40c0-10.908 4.421-20.783 11.57-27.93C19.216 4.92 29.091.5 40 .5z"/></g></svg>